<svg id="Solid" viewBox="0 0 128 128" xmlns="http://www.w3.org/2000/svg"><path d="m17.624 22.881.931 1.7a.8.8 0 0 0 .32.32l1.7.93a.806.806 0 0 1 0 1.414l-1.7.93a.8.8 0 0 0 -.32.32l-.931 1.7a.806.806 0 0 1 -1.413 0l-.931-1.7a.808.808 0 0 0 -.32-.32l-1.7-.93a.806.806 0 0 1 0-1.414l1.7-.93a.808.808 0 0 0 .32-.32l.931-1.7a.8.8 0 0 1 1.413 0z"></path><path d="m104.08 95.713.892 1.632a.781.781 0 0 0 .307.307l1.632.892a.773.773 0 0 1 0 1.356l-1.632.892a.775.775 0 0 0 -.307.307l-.892 1.631a.773.773 0 0 1 -1.356 0l-.892-1.631a.769.769 0 0 0 -.307-.307l-1.631-.892a.773.773 0 0 1 0-1.356l1.631-.892a.775.775 0 0 0 .307-.307l.892-1.632a.773.773 0 0 1 1.356 0z"></path><path d="m89.958 106.392 1.426 2.608a1.247 1.247 0 0 0 .491.491l2.608 1.426a1.234 1.234 0 0 1 0 2.166l-2.608 1.426a1.247 1.247 0 0 0 -.491.491l-1.426 2.608a1.234 1.234 0 0 1 -2.166 0l-1.426-2.608a1.247 1.247 0 0 0 -.491-.491l-2.608-1.426a1.234 1.234 0 0 1 0-2.166l2.608-1.426a1.247 1.247 0 0 0 .491-.491l1.426-2.608a1.234 1.234 0 0 1 2.166 0z"></path><path d="m91.276 35.16-19.466 18.278a.651.651 0 0 1 -1.085-.354l-2.475-13.064a.651.651 0 0 0 -1.286.042l-1.809 14.738a.651.651 0 0 1 -1.029.448l-10.769-7.81a.651.651 0 0 0 -.92.894l7.737 11.368a.651.651 0 0 1 -.391 1l-6.8 1.584a.651.651 0 0 0 .031 1.275l6.238 1.13a.651.651 0 0 1 .359 1.086l-20.543 21.936a.651.651 0 0 0 .9.935l22.978-20.039a.651.651 0 0 1 1.077.434l1.132 13.038a.651.651 0 0 0 1.289.061l2.141-11.727a.651.651 0 0 1 1.1-.345l5.742 5.688a.651.651 0 0 0 1.082-.651l-2.6-8.621a.652.652 0 0 1 .829-.807l8.015 2.66a.651.651 0 0 0 .622-1.118l-6.467-5.4a.652.652 0 0 1 .175-1.1l6.217-2.49a.651.651 0 0 0 -.208-1.255l-6.838-.347a.651.651 0 0 1 -.465-1.07l16.433-19.5a.651.651 0 0 0 -.946-.897z"></path><path d="m5.412 126.653a1.5 1.5 0 0 1 -1.012-2.606l53.686-49.1a2.484 2.484 0 0 1 2.914-.329 2.65 2.65 0 0 1 1.274 2.1l2.776 30.4a1.5 1.5 0 1 1 -2.987.274l-2.663-29.147a.2.2 0 0 0 -.334-.129l-52.642 48.144a1.5 1.5 0 0 1 -1.012.393z"></path><path d="m2.25 124.25a1.68 1.68 0 0 1 -1.576-1.969.208.208 0 0 1 .061-.142c6.5-6.342 39.714-43.114 48.3-52.63a.2.2 0 0 0 -.122-.324l-22.323-3.672a1.5 1.5 0 0 1 .487-2.961l23.583 3.881a2.572 2.572 0 0 1 1.859 3.667.206.206 0 0 1 -.041.064c-5.807 6.443-41.221 45.7-49.167 53.645a1.5 1.5 0 0 1 -1.061.441z"></path><path d="m26.915 62.5a1.5 1.5 0 0 1 -1.5-1.445 1.575 1.575 0 0 1 1.419-1.555l23.866-3.036a.2.2 0 0 0 .141-.311l-23.417-34.646a1.5 1.5 0 1 1 2.485-1.68l24.053 35.59a2.491 2.491 0 0 1 .038 2.746 2.634 2.634 0 0 1 -1.917 1.15l-24.978 3.175a1.515 1.515 0 0 1 -.19.012z"></path><path d="m61.25 49.327a2.478 2.478 0 0 1 -1.7-.682l-28.578-26.885a1.5 1.5 0 0 1 2.056-2.186l27.493 25.87a.2.2 0 0 0 .337-.133l1.842-27.952a1.5 1.5 0 1 1 2.993.2l-1.933 29.332a2.59 2.59 0 0 1 -1.109 2.009 2.546 2.546 0 0 1 -1.401.427z"></path><path d="m74.23 46.747a2.5 2.5 0 0 1 -2.462-2.073l-4.706-27.174a1.5 1.5 0 0 1 2.956-.512l4.493 25.944a.2.2 0 0 0 .329.116l46.671-40.926a1.5 1.5 0 1 1 1.978 2.256l-47.61 41.749a2.5 2.5 0 0 1 -1.649.62z"></path><path d="m67.476 107.837a1.6 1.6 0 0 1 -.3-.029 1.5 1.5 0 0 1 -1.194-1.644c.514-4.754 2.574-23.792 3.067-28.351a2.6 2.6 0 0 1 1.7-2.227 2.481 2.481 0 0 1 2.851.951l10.163 14.719a1.5 1.5 0 0 1 -2.47 1.7l-9.085-13.165a.2.2 0 0 0 -.364.092l-2.879 26.617a1.5 1.5 0 0 1 -1.489 1.337z"></path><path d="m85.657 92.48a1.5 1.5 0 0 1 -1.433-1.059l-5.55-18.081a2.624 2.624 0 0 1 .631-2.683 2.5 2.5 0 0 1 2.956-.355l29.625 16.88a1.5 1.5 0 0 1 -1.486 2.607l-28.09-16.006a.2.2 0 0 0 -.29.232l5.072 16.525a1.5 1.5 0 0 1 -1.435 1.94z"></path><path d="m113.794 87.333a1.494 1.494 0 0 1 -.926-.32l-28.933-22.732a2.634 2.634 0 0 1 -1.047-2.336 2.49 2.49 0 0 1 1.852-2.132l23.99-6.279a1.5 1.5 0 1 1 .76 2.9l-22.627 5.925a.2.2 0 0 0 -.073.351l27.873 21.9a1.553 1.553 0 0 1 .465 1.916 1.5 1.5 0 0 1 -1.334.807z"></path><path d="m84.328 53.671a2.5 2.5 0 0 1 -1.835-4.2l42.407-45.906a1.5 1.5 0 0 1 2.2 2.035l-41.27 44.682a.2.2 0 0 0 .154.336l22.326-.712a1.5 1.5 0 0 1 .1 3l-24 .765z"></path><path d="m112.546 31.423a1.5 1.5 0 0 1 -1.034-2.587l1.249-1.189a1.5 1.5 0 0 1 2.068 2.174l-1.249 1.189a1.5 1.5 0 0 1 -1.034.413z"></path><path d="m101.8 41.655a1.5 1.5 0 0 1 -1.034-2.586l8.255-7.86a1.5 1.5 0 1 1 2.068 2.172l-8.255 7.86a1.493 1.493 0 0 1 -1.034.414z"></path><path d="m79.327 34.731a1.5 1.5 0 0 1 -1.09-2.53l12.651-13.385a1.5 1.5 0 0 1 2.181 2.061l-12.651 13.385a1.5 1.5 0 0 1 -1.091.469z"></path><path d="m35.368 110.736a1.5 1.5 0 0 1 -1.09-2.53l20.722-21.928a1.5 1.5 0 0 1 2.181 2.061l-20.722 21.928a1.5 1.5 0 0 1 -1.091.469z"></path><path d="m15.991 100.714a1.5 1.5 0 0 1 -1.09-2.53l15.233-16.118a1.5 1.5 0 0 1 2.181 2.061l-15.233 16.117a1.5 1.5 0 0 1 -1.091.47z"></path><path d="m10.5 106.523a1.5 1.5 0 0 1 -1.09-2.53l1.792-1.9a1.5 1.5 0 0 1 2.18 2.06l-1.792 1.9a1.5 1.5 0 0 1 -1.09.47z"></path><path d="m79.368 12.831c-.781-.117-1.745-.889-1.629-1.671s.002-2.028 1.561-2.16c.787-.065 2.487.689 2.126 2.246a1.753 1.753 0 0 1 -2.058 1.585z"></path><path d="m21.555 47.275c-.781-.117-1.744-.889-1.628-1.67s0-2.027 1.561-2.157c.786-.066 2.486.688 2.124 2.244a1.752 1.752 0 0 1 -2.057 1.583z"></path><path d="m55.8 112.841c-.966-.144-2.158-1.1-2.014-2.065s0-2.507 1.93-2.668c.973-.082 3.075.851 2.627 2.775a2.166 2.166 0 0 1 -2.543 1.958z"></path></svg>